<svg width="80" height="81" viewBox="0 0 80 81" fill="none" xmlns="http://www.w3.org/2000/svg">
<path d="M32.5 5.03662C28.5232 5.04125 24.7106 6.62309 21.8985 9.43513C19.0865 12.2472 17.5046 16.0598 17.5 20.0366H22.5C22.5 17.3845 23.5536 14.8409 25.4289 12.9656C27.3043 11.0902 29.8478 10.0366 32.5 10.0366C35.1522 10.0366 37.6957 11.0902 39.5711 12.9656C41.4464 14.8409 42.5 17.3845 42.5 20.0366H47.5C47.4954 16.0598 45.9135 12.2472 43.1015 9.43513C40.2894 6.62309 36.4768 5.04125 32.5 5.03662Z" fill="#0054A2"/>
<path d="M52.498 75.0366H41.398C38.8898 75.036 36.4734 74.0928 34.628 72.3941L11.628 51.2291C11.091 50.7382 10.6675 50.1361 10.3869 49.4648C10.1064 48.7934 9.97565 48.069 10.0037 47.3419C10.0318 46.6149 10.2181 45.9027 10.5495 45.255C10.881 44.6073 11.3497 44.0397 11.923 43.5916C12.9051 42.8721 14.1091 42.5211 15.3241 42.6002C16.539 42.6792 17.6874 43.1833 18.568 44.0241L27.498 52.1791V20.0366C27.498 18.7105 28.0248 17.4388 28.9624 16.5011C29.9001 15.5634 31.1719 15.0366 32.498 15.0366C33.8241 15.0366 35.0958 15.5634 36.0335 16.5011C36.9712 17.4388 37.498 18.7105 37.498 20.0366V37.5366C37.498 36.2105 38.0248 34.9388 38.9624 34.0011C39.9001 33.0634 41.1719 32.5366 42.498 32.5366C43.8241 32.5366 45.0958 33.0634 46.0335 34.0011C46.9712 34.9388 47.498 36.2105 47.498 37.5366V40.0366C47.498 38.7105 48.0248 37.4388 48.9624 36.5011C49.9001 35.5634 51.1719 35.0366 52.498 35.0366C53.8241 35.0366 55.0958 35.5634 56.0335 36.5011C56.9712 37.4388 57.498 38.7105 57.498 40.0366V42.5366C57.498 41.2105 58.0248 39.9388 58.9624 39.0011C59.9001 38.0634 61.1719 37.5366 62.498 37.5366C63.8241 37.5366 65.0958 38.0634 66.0335 39.0011C66.9712 39.9388 67.498 41.2105 67.498 42.5366V60.0366C67.498 64.0149 65.9176 67.8302 63.1046 70.6432C60.2915 73.4563 56.4762 75.0366 52.498 75.0366Z" fill="#0054A2"/>
</svg>
