<svg width="32" height="33" viewBox="0 0 32 33" fill="none" xmlns="http://www.w3.org/2000/svg">
<mask id="mask0_7751_249" style="mask-type:alpha" maskUnits="userSpaceOnUse" x="0" y="0" width="32" height="33">
<rect y="0.0366211" width="32" height="32" fill="#D9D9D9"/>
</mask>
<g mask="url(#mask0_7751_249)">
<path d="M22.666 21.1264C21.6831 21.1264 20.8476 20.7824 20.1596 20.0944C19.4716 19.4063 19.1275 18.5709 19.1275 17.588C19.1275 16.6051 19.4716 15.7696 20.1596 15.0816C20.8476 14.3935 21.6831 14.0495 22.666 14.0495C23.6489 14.0495 24.4843 14.3935 25.1724 15.0816C25.8604 15.7696 26.2044 16.6051 26.2044 17.588C26.2044 18.5709 25.8604 19.4063 25.1724 20.0944C24.4843 20.7824 23.6489 21.1264 22.666 21.1264ZM15.1275 29.7289V26.3238C15.1275 25.9378 15.2195 25.5747 15.4035 25.2347C15.5875 24.8946 15.8451 24.6235 16.1762 24.4213C16.8405 24.025 17.541 23.6966 18.2779 23.4359C19.0148 23.1752 19.7672 22.9823 20.5352 22.8572L22.666 25.5367L24.7839 22.8572C25.5561 22.9823 26.3074 23.1752 27.0378 23.4359C27.7683 23.6966 28.4674 24.025 29.1352 24.4213C29.4668 24.623 29.7258 24.8931 29.9121 25.2315C30.0984 25.57 30.1959 25.9298 30.2044 26.311V29.7289H15.1275ZM11.948 26.3238V27.37H7.08238C6.41336 27.37 5.84338 27.134 5.37245 26.6619C4.90149 26.1899 4.66602 25.6225 4.66602 24.9597V7.11364C4.66602 6.45082 4.90203 5.8834 5.37405 5.4114C5.84605 4.93938 6.41346 4.70337 7.07628 4.70337H24.9223C25.5852 4.70337 26.1526 4.93938 26.6246 5.4114C27.0966 5.8834 27.3326 6.45082 27.3326 7.11364V12.9084C26.7036 12.2469 26.0048 11.7418 25.2365 11.3931C24.4681 11.0444 23.6113 10.87 22.666 10.87C22.6061 10.87 22.5506 10.8721 22.4993 10.8764C22.448 10.8807 22.3925 10.8871 22.3326 10.8957V9.8572H9.66602V11.8572H19.2814C18.6489 12.2127 18.0929 12.6597 17.6134 13.1982C17.1339 13.7367 16.7506 14.3495 16.4634 15.0367H9.66602V17.0366H16.0121C15.9694 17.546 15.9831 18.0507 16.0531 18.5508C16.1232 19.0508 16.2472 19.5418 16.4249 20.0238C16.348 20.058 16.2732 20.0901 16.2006 20.12C16.1279 20.1499 16.0574 20.182 15.989 20.2162H9.66602V22.2161H13.8301C13.2386 22.7272 12.7771 23.3439 12.4454 24.0661C12.1138 24.7884 11.948 25.5409 11.948 26.3238Z" fill="#4B5563"/>
</g>
</svg>
