<svg width="23" height="22" viewBox="0 0 23 22" fill="none" xmlns="http://www.w3.org/2000/svg">
<path d="M0.2274 9.03053C0.0399432 8.89404 -0.0402005 8.65359 0.0278786 8.43192L0.116555 8.15479C0.181387 7.93577 0.376301 7.78071 0.604274 7.7668L7.68729 7.20145L10.403 0.672205C10.4941 0.443472 10.7227 0.3 10.9683 0.317476H11.2565C11.488 0.312563 11.6972 0.454986 11.7775 0.672205L14.5043 7.20145L21.5873 7.7668C21.8153 7.78071 22.0102 7.93577 22.075 8.15479L22.1637 8.43192C22.2391 8.64659 22.1727 8.88551 21.9974 9.03053L16.6547 13.6198L18.2952 20.5038C18.3492 20.7242 18.2663 20.9555 18.0846 21.0913L17.7631 21.2687C17.5756 21.3955 17.3299 21.3955 17.1424 21.2687L11.1124 17.6106L5.04917 21.302C4.86167 21.4287 4.61594 21.4287 4.42844 21.302L4.18458 21.1357C4.00285 20.9998 3.91992 20.7685 3.97397 20.5482L5.57014 13.6198L0.2274 9.03053Z" fill="#0054A2"/>
</svg>
