<svg width="80" height="81" viewBox="0 0 80 81" fill="none" xmlns="http://www.w3.org/2000/svg">
<path d="M55.0032 6.70459C52.2299 6.704 49.4925 7.33263 46.9972 8.54314C44.502 9.75366 42.3139 11.5145 40.5977 13.6931C38.8815 15.8717 37.682 18.4113 37.0894 21.1206C36.4968 23.83 36.5266 26.6384 37.1766 29.3346L9.47325 57.0379C8.56985 57.9233 7.85092 58.9789 7.35803 60.1438C6.86514 61.3087 6.60807 62.5597 6.60168 63.8246C6.5953 65.0895 6.83972 66.3431 7.32082 67.5129C7.80191 68.6827 8.51014 69.7455 9.40455 70.64C10.299 71.5344 11.3618 72.2426 12.5316 72.7237C13.7014 73.2048 14.955 73.4492 16.2199 73.4428C17.4848 73.4364 18.7358 73.1794 19.9007 72.6865C21.0656 72.1936 22.1213 71.4747 23.0066 70.5713L36.7232 56.8613C36.9661 53.3724 38.0498 49.9941 39.882 47.0151C41.7141 44.0361 44.2401 41.5449 47.2443 39.7543C50.2484 37.9636 53.6414 36.9268 57.1333 36.7324C60.6252 36.538 64.1122 37.1918 67.2966 38.6379C69.1981 36.9192 70.7181 34.8208 71.7585 32.4783C72.7989 30.1358 73.3364 27.6011 73.3366 25.0379C73.3389 23.061 73.0215 21.0968 72.3966 19.2213C72.2614 18.8172 72.0252 18.4544 71.7104 18.1672C71.3956 17.8801 71.0126 17.6782 70.5979 17.5807C70.1831 17.4832 69.7503 17.4933 69.3405 17.6101C68.9308 17.7268 68.5576 17.9464 68.2566 18.2479L60.1099 26.3946C59.6412 26.8628 59.0058 27.1257 58.3433 27.1257C57.6807 27.1257 57.0453 26.8628 56.5766 26.3946L53.6466 23.4679C53.1784 22.9992 52.9154 22.3638 52.9154 21.7013C52.9154 21.0388 53.1784 20.4033 53.6466 19.9346L61.7966 11.7846C62.0972 11.4833 62.316 11.1101 62.4321 10.7006C62.5482 10.291 62.5578 9.85864 62.4599 9.44434C62.3621 9.03005 62.1602 8.6476 61.8731 8.33322C61.5861 8.01885 61.2236 7.78297 60.8199 7.64793C58.9446 7.0219 56.9803 6.70335 55.0032 6.70459ZM47.5933 46.6246C47.842 47.4864 47.9142 48.3895 47.8057 49.2799C47.6972 50.1703 47.4101 51.0296 46.9616 51.8065C46.5131 52.5833 45.9125 53.2616 45.1957 53.8008C44.4789 54.34 43.6606 54.7291 42.7899 54.9446L40.8432 55.4246C40.5292 57.4217 40.536 59.4562 40.8633 61.4513L42.6632 61.8846C43.5419 62.0962 44.3682 62.4843 45.0922 63.0252C45.8162 63.5661 46.4227 64.2485 46.8747 65.0311C47.3268 65.8136 47.615 66.6799 47.7219 67.5773C47.8288 68.4747 47.7522 69.3844 47.4966 70.2513L46.8732 72.3546C48.3399 73.6413 50.0066 74.6846 51.8232 75.4279L53.4666 73.6979C54.0893 73.0429 54.8388 72.5213 55.6694 72.1649C56.5 71.8085 57.3944 71.6247 58.2982 71.6247C59.2021 71.6247 60.0965 71.8085 60.9271 72.1649C61.7577 72.5213 62.5072 73.0429 63.1299 73.6979L64.7932 75.4479C66.5964 74.7127 68.2656 73.6844 69.7332 72.4046L69.0732 70.1179C68.8246 69.2559 68.7524 68.3525 68.8612 67.462C68.9699 66.5714 69.2573 65.712 69.7061 64.9351C70.1549 64.1582 70.7559 63.48 71.4731 62.9409C72.1903 62.4018 73.0089 62.0131 73.8799 61.7979L75.8232 61.3179C76.1373 59.3208 76.1305 57.2863 75.8032 55.2913L74.0033 54.8579C73.1249 54.6459 72.2989 54.2576 71.5753 53.7165C70.8517 53.1755 70.2456 52.493 69.7939 51.7105C69.3422 50.928 69.0542 50.0618 68.9475 49.1646C68.8408 48.2674 68.9176 47.3579 69.1732 46.4913L69.7932 44.3913C68.3257 43.1002 66.6541 42.0617 64.8466 41.3179L63.2032 43.0446C62.5804 43.7002 61.8308 44.2222 60.9999 44.5789C60.169 44.9356 59.2742 45.1196 58.3699 45.1196C57.4657 45.1196 56.5709 44.9356 55.74 44.5789C54.909 44.2222 54.1594 43.7002 53.5366 43.0446L51.8766 41.2946C50.0632 42.0279 48.3966 43.0613 46.9333 44.3346L47.5933 46.6246ZM58.3366 63.3713C55.6699 63.3713 53.5032 61.1313 53.5032 58.3713C53.5032 55.6113 55.6699 53.3713 58.3366 53.3713C61.0032 53.3713 63.1699 55.6113 63.1699 58.3713C63.1699 61.1313 61.0032 63.3713 58.3366 63.3713Z" fill="#0054A2"/>
</svg>
