<svg width="80" height="81" viewBox="0 0 80 81" fill="none" xmlns="http://www.w3.org/2000/svg">
<path fill-rule="evenodd" clip-rule="evenodd" d="M3.33594 10.0379C3.33594 9.15387 3.68713 8.30602 4.31225 7.6809C4.93737 7.05578 5.78522 6.70459 6.66927 6.70459H43.3359C44.22 6.70459 45.0678 7.05578 45.693 7.6809C46.3181 8.30602 46.6693 9.15387 46.6693 10.0379V26.7046H60.0026C62.1913 26.7046 64.3586 27.1357 66.3807 27.9733C68.4028 28.8108 70.2401 30.0385 71.7877 31.5861C73.3354 33.1338 74.563 34.9711 75.4006 36.9932C76.2382 39.0153 76.6693 41.1826 76.6693 43.3713V56.7046C76.6696 58.8504 75.9799 60.9395 74.7021 62.6633C73.4242 64.3872 71.6259 65.6544 69.5726 66.2779C68.9613 68.2946 67.7285 70.0666 66.0502 71.341C64.3719 72.6154 62.3339 73.327 60.2272 73.3743C58.1204 73.4216 56.0525 72.8022 54.3188 71.6044C52.585 70.4067 51.2739 68.6918 50.5726 66.7046H29.4359C28.7347 68.6918 27.4236 70.4067 25.6898 71.6044C23.956 72.8022 21.8881 73.4216 19.7814 73.3743C17.6746 73.327 15.6366 72.6154 13.9584 71.341C12.2801 70.0666 11.0473 68.2946 10.4359 66.2779C8.38207 65.655 6.58301 64.388 5.30449 62.6641C4.02598 60.9402 3.33581 58.8508 3.33594 56.7046V43.3713H23.3359C24.22 43.3713 25.0678 43.0201 25.693 42.3949C26.3181 41.7698 26.6693 40.922 26.6693 40.0379C26.6693 39.1539 26.3181 38.306 25.693 37.6809C25.0678 37.0558 24.22 36.7046 23.3359 36.7046H3.33594V30.0379H16.6693C17.5533 30.0379 18.4012 29.6867 19.0263 29.0616C19.6514 28.4365 20.0026 27.5886 20.0026 26.7046C20.0026 25.8205 19.6514 24.9727 19.0263 24.3476C18.4012 23.7224 17.5533 23.3713 16.6693 23.3713H3.33594V10.0379ZM46.6693 60.0379H50.5726C51.2316 58.1728 52.4289 56.5449 54.0132 55.3604C55.5975 54.1758 57.4975 53.4877 59.4729 53.3832C61.4483 53.2786 63.4103 53.7623 65.1108 54.773C66.8113 55.7837 68.1738 57.2761 69.0259 59.0613C69.3359 58.7521 69.5818 58.3848 69.7494 57.9804C69.917 57.5759 70.0031 57.1424 70.0026 56.7046V43.3713C70.0026 40.7191 68.949 38.1756 67.0737 36.3002C65.1983 34.4248 62.6548 33.3713 60.0026 33.3713H46.6693V60.0379ZM23.3359 63.3713C23.3359 62.4872 22.9847 61.6394 22.3596 61.0142C21.7345 60.3891 20.8867 60.0379 20.0026 60.0379C19.1186 60.0379 18.2707 60.3891 17.6456 61.0142C17.0205 61.6394 16.6693 62.4872 16.6693 63.3713C16.6693 64.2553 17.0205 65.1032 17.6456 65.7283C18.2707 66.3534 19.1186 66.7046 20.0026 66.7046C20.8867 66.7046 21.7345 66.3534 22.3596 65.7283C22.9847 65.1032 23.3359 64.2553 23.3359 63.3713ZM57.6459 61.0146C57.3355 61.3234 57.0893 61.6907 56.9217 62.0952C56.7541 62.4997 56.6683 62.9334 56.6693 63.3713C56.6691 64.1425 56.9364 64.8898 57.4255 65.4861C57.9146 66.0823 58.5953 66.4905 59.3517 66.6411C60.108 66.7917 60.8932 66.6754 61.5734 66.312C62.2536 65.9486 62.7867 65.3606 63.082 64.6481C63.3772 63.9357 63.4163 63.1429 63.1926 62.4049C62.9688 61.6669 62.4961 61.0293 61.855 60.6007C61.2138 60.1722 60.4439 59.9792 59.6764 60.0546C58.9089 60.1301 58.1913 60.4694 57.6459 61.0146Z" fill="#0054A2"/>
</svg>
